<svg xmlns="http://www.w3.org/2000/svg" width="100" height="100" viewBox="0 0 100 100">
  <g id="cost_effective" data-name="cost effective" transform="translate(-275.909 -546.839)">
    <circle id="Ellipse_242" data-name="Ellipse 242" cx="50" cy="50" r="50" transform="translate(275.909 546.839)" fill="#fff"/>
    <path id="Path_266" data-name="Path 266" d="M326.271,634.846l11.7,11.7a.976.976,0,0,0,1.378,0l6.436-6.436a.976.976,0,0,0,0-1.378l-.285-.285h14.06a4.866,4.866,0,0,0,3.32-1.308l11.833-11.089a3.767,3.767,0,0,0-4.558-5.957c-.005.005-2.626,1.723-2.626,1.723a16.407,16.407,0,0,0-7.609-13.461,2.933,2.933,0,0,0-1.293-4.708l-.145-.045L361,599.1a.973.973,0,0,0-.579-1.408,20,20,0,0,0-11.124,0,.973.973,0,0,0-.579,1.408l2.511,4.509c-.05.015-.1.03-.145.045a2.927,2.927,0,0,0-1.288,4.7,16.4,16.4,0,0,0-7.614,13.506c0,.145.005.285.01.424a11.942,11.942,0,0,0-4.738,2.541l-2.966,2.591-.394-.394a.976.976,0,0,0-1.378,0l-6.436,6.436A.975.975,0,0,0,326.271,634.846Zm24.76-35.584a18.114,18.114,0,0,1,3.82-.409,17.791,17.791,0,0,1,3.82.409l-2.172,3.9a11.751,11.751,0,0,0-3.3,0Zm.654,6.251a10.09,10.09,0,0,1,6.331,0,.985.985,0,0,1,.624,1.233.971.971,0,0,1-.869.669,9.528,9.528,0,0,0-5.842,0h0a.977.977,0,0,1-.245-1.9Zm.539,3.854a7.6,7.6,0,0,1,5.138-.04c4.534,1.558,8.218,7.185,8.218,12.542a9.634,9.634,0,0,1-.085,1.293l-4.688,3.076a3.882,3.882,0,0,0-3.031-1.443h-1.952v-1.143a2.924,2.924,0,0,0-.974-5.682.974.974,0,1,1,0-1.947,1.56,1.56,0,0,1,1.053.509.975.975,0,1,0,1.353-1.4,3.765,3.765,0,0,0-1.438-.9v-1.138a.974.974,0,0,0-1.947,0v1.143a2.924,2.924,0,0,0,.974,5.682.974.974,0,0,1,0,1.947,1.761,1.761,0,0,1-1.268-.739.975.975,0,1,0-1.493,1.253,4.009,4.009,0,0,0,1.782,1.268v1.138h-.325c-.479,0-.694-.315-1.034-.529a12.077,12.077,0,0,0-7.19-2.4c-.4,0-.8.02-1.208.06v-.06C344.121,616.587,347.756,610.98,352.225,609.367Zm-13.5,16.931a10.029,10.029,0,0,1,12.617-.479,3.473,3.473,0,0,0,2.2.919h4.224a1.952,1.952,0,1,1,0,3.9h-6.825a.974.974,0,0,0,0,1.947h6.825a3.9,3.9,0,0,0,3.9-3.9,4.1,4.1,0,0,0-.055-.659l9.576-6.281a1.816,1.816,0,0,1,2.182,2.881L361.541,635.72a2.918,2.918,0,0,1-1.992.784H343.542l-7.689-7.689Zm-5.332,2.8,10.325,10.325-5.058,5.058-10.325-10.325Z" transform="translate(-25.037 -25.03)" fill="#1aa7de"/>
  </g>
</svg>
