<svg xmlns="http://www.w3.org/2000/svg" width="100" height="100" viewBox="0 0 100 100">
  <g id="hassle_free_meetings" data-name="hassle free meetings" transform="translate(-287.395 -256.365)">
    <circle id="Ellipse_234" data-name="Ellipse 234" cx="50" cy="50" r="50" transform="translate(287.395 256.365)" fill="#fff"/>
    <g id="Group_356" data-name="Group 356" transform="translate(305.206 292.215)">
      <path id="XMLID_8_" d="M336.866,365.627H323.408a.45.45,0,0,1-.448-.448h0a6.729,6.729,0,0,1,6.729-6.729h.9a6.73,6.73,0,0,1,6.729,6.729h0A.454.454,0,0,1,336.866,365.627Z" transform="translate(-322.96 -343.359)" fill="none" stroke="#1aa7de" stroke-miterlimit="10" stroke-width="2"/>
      <circle id="Ellipse_235" data-name="Ellipse 235" cx="3.461" cy="3.461" r="3.461" transform="translate(3.715 4.537)" fill="none" stroke="#1aa7de" stroke-miterlimit="10" stroke-width="2"/>
      <path id="XMLID_7_" d="M437.3,365.627H423.838a.45.45,0,0,1-.448-.448h0a6.729,6.729,0,0,1,6.729-6.729h.9a6.73,6.73,0,0,1,6.729,6.729h0A.454.454,0,0,1,437.3,365.627Z" transform="translate(-373.371 -343.359)" fill="none" stroke="#1aa7de" stroke-miterlimit="10" stroke-width="2"/>
      <circle id="Ellipse_236" data-name="Ellipse 236" cx="3.461" cy="3.461" r="3.461" transform="translate(53.734 4.537)" fill="none" stroke="#1aa7de" stroke-miterlimit="10" stroke-width="2"/>
      <path id="XMLID_1_" d="M386.7,372.346H363.247a.789.789,0,0,1-.787-.787h0a11.73,11.73,0,0,1,11.729-11.729h1.569a11.73,11.73,0,0,1,11.729,11.729h0A.789.789,0,0,1,386.7,372.346Z" transform="translate(-342.787 -344.052)" fill="#1aa7de"/>
      <circle id="Ellipse_237" data-name="Ellipse 237" cx="6.031" cy="6.031" r="6.031" transform="translate(26.157)" fill="#1aa7de"/>
    </g>
  </g>
</svg>
