<svg xmlns="http://www.w3.org/2000/svg" width="100" height="100" viewBox="0 0 100 100">
  <g id="Group_746" data-name="Group 746" transform="translate(-1270 -7870)">
    <circle id="Ellipse_278" data-name="Ellipse 278" cx="50" cy="50" r="50" transform="translate(1270 7870)" fill="#fff"/>
    <g id="Group_745" data-name="Group 745" transform="translate(1299.482 7894.363)">
      <path id="Path_669" data-name="Path 669" d="M784.215,603.86c0,2.76.01,5.521,0,8.281a25.762,25.762,0,0,1-20.247,24.944,1.3,1.3,0,0,1-.557-.01A25.687,25.687,0,0,1,743.576,616.3a27.2,27.2,0,0,1-.386-4.557q0-9.034-.01-18.073c0-.412.115-.547.522-.622a93.025,93.025,0,0,0,19.629-6.078.824.824,0,0,1,.728-.01,92.87,92.87,0,0,0,19.78,6.113c.346.065.386.231.386.527C784.21,597.019,784.215,600.437,784.215,603.86Z" transform="translate(-743.18 -586.881)" fill="none" stroke="#1aa7de" stroke-miterlimit="10" stroke-width="3"/>
      <g id="Group_744" data-name="Group 744" transform="translate(8.382 12.984)">
        <g id="Group_743" data-name="Group 743">
          <path id="Path_670" data-name="Path 670" d="M772.066,612.75a12.128,12.128,0,1,0,12.071,12.236A12.144,12.144,0,0,0,772.066,612.75Zm-.9,1.782a.427.427,0,0,1,.04.271c0,1.109-.005,2.218.005,3.328,0,.221-.04.3-.281.286a19.118,19.118,0,0,1-2.56-.331A6.547,6.547,0,0,1,771.163,614.532Zm.045,13.2v1.817c0,.11.005.186-.151.186a15.429,15.429,0,0,0-3.072.366c-.141.03-.186.005-.216-.136a24.9,24.9,0,0,1-.6-4.085c-.01-.151.015-.2.181-.2,1.23.01,2.454.005,3.684,0,.146,0,.181.045.176.181C771.2,626.492,771.208,627.114,771.208,627.737Zm-.181-3.659c-.622-.01-1.245-.005-1.867-.005s-1.215-.005-1.817.005c-.146,0-.186-.035-.176-.181a25.345,25.345,0,0,1,.6-4.116c.025-.105.045-.156.181-.125a21.877,21.877,0,0,0,3.082.361c.14.01.181.045.181.191q-.008,1.844,0,3.689C771.208,624.038,771.173,624.078,771.027,624.078Zm-2.926-8.964c-.055.09-.085.141-.12.191a10.777,10.777,0,0,0-1.119,2.163c-.07.176-.151.216-.336.161a12.748,12.748,0,0,1-1.536-.507A9.147,9.147,0,0,1,768.1,615.114Zm-6.585,8.823a11.564,11.564,0,0,1,2.048-5.35.338.338,0,0,1,.507-.13,12.521,12.521,0,0,0,1.932.7c.166.045.186.105.156.261a28.992,28.992,0,0,0-.532,3.533c-.025.316-.055.637-.07.954,0,.136-.05.166-.176.161-.622-.005-1.245-.005-1.867-.005h-1.842C761.576,624.073,761.5,624.088,761.516,623.937Zm2.123,7.323a10.56,10.56,0,0,1-1.777-3.563,12.916,12.916,0,0,1-.346-1.807c-.02-.171.03-.206.191-.206.607.01,1.215.005,1.817.005s1.23,0,1.842-.005c.141,0,.176.04.186.181a21.368,21.368,0,0,0,.677,4.432c.035.12.02.176-.11.221a17.251,17.251,0,0,0-2.254.863C763.719,631.456,763.689,631.33,763.639,631.26Zm1.335,1.385a13.464,13.464,0,0,1,1.631-.612c.1-.03.166-.04.216.08a15.63,15.63,0,0,0,1.315,2.459A9.243,9.243,0,0,1,764.974,632.645Zm6.234,2.6a6.492,6.492,0,0,1-2.836-3.574,22.3,22.3,0,0,1,2.263-.281h.025c.176-.015.427-.1.507-.02.115.12.04.366.04.557Zm9.19-16.743a10.583,10.583,0,0,1,1.827,3.754,12.841,12.841,0,0,1,.3,1.636c.02.146-.02.186-.166.181-.622-.01-1.245-.005-1.867-.005-.6,0-1.195,0-1.792.005-.151,0-.211-.02-.221-.2a21.075,21.075,0,0,0-.673-4.4c-.045-.161.01-.2.141-.246a16.469,16.469,0,0,0,2.2-.843C780.3,618.311,780.337,618.432,780.4,618.507Zm-1.34-1.4a13.33,13.33,0,0,1-1.621.612c-.1.025-.166.055-.216-.07a18.074,18.074,0,0,0-1.255-2.414A8.82,8.82,0,0,1,779.057,617.112Zm-6.234-2.51c0-.015.015-.025.035-.07a6.5,6.5,0,0,1,2.8,3.548,14.76,14.76,0,0,1-1.581.221c-.361.04-.718.065-1.079.1-.115.01-.181.015-.181-.141C772.829,617.041,772.824,615.822,772.824,614.6Zm-.005,9.245c.015-.607.005-1.21.005-1.817v-1.817c0-.1-.02-.191.141-.191a15.427,15.427,0,0,0,3.072-.366c.166-.035.2.01.226.156a24.325,24.325,0,0,1,.6,4.03c.015.2-.04.231-.226.231q-1.792-.015-3.584,0C772.874,624.078,772.814,624.048,772.819,623.847Zm.005,3.865c0-.617.005-1.23-.005-1.842,0-.146.04-.181.181-.181q1.844.008,3.689,0c.146,0,.181.04.171.181a25.35,25.35,0,0,1-.6,4.116c-.025.105-.045.156-.181.125a24.354,24.354,0,0,0-3.082-.366c-.141-.01-.181-.05-.176-.191C772.829,628.941,772.824,628.324,772.824,627.712Zm0,7.5c0-1.255.005-2.489-.005-3.724,0-.171.1-.135.2-.135a15.1,15.1,0,0,1,2.374.276l.221.045C775.293,632.806,774.063,634.808,772.824,635.21Zm3.117-.577c.05-.08.075-.13.11-.181a11.044,11.044,0,0,0,1.119-2.163c.075-.181.151-.211.336-.151a9.4,9.4,0,0,1,1.536.592A10.167,10.167,0,0,1,775.941,634.633Zm6.575-8.748a10.735,10.735,0,0,1-2.093,5.35c-.12.161-.2.176-.381.09a15.313,15.313,0,0,0-2.068-.778c-.171-.055-.211-.11-.161-.3a21.619,21.619,0,0,0,.662-4.352c.01-.161.045-.211.211-.206.612.01,1.23,0,1.842,0s1.21.005,1.817,0C782.51,625.684,782.531,625.734,782.515,625.885Z" transform="translate(-759.88 -612.75)" fill="#1aa7de"/>
        </g>
      </g>
    </g>
  </g>
</svg>
