<svg xmlns="http://www.w3.org/2000/svg" width="200" height="200" viewBox="0 0 200 200">
  <g id="eco_friendly" data-name="eco friendly" transform="translate(-388.5 -373.62)">
    <circle id="Ellipse_233" data-name="Ellipse 233" cx="100" cy="100" r="100" transform="translate(388.5 373.62)" fill="#fff"/>
    <g id="Group_355" data-name="Group 355">
      <path id="Path_242" data-name="Path 242" d="M438.5,470.38c0-4.91-.04-9.82.01-14.72a8.939,8.939,0,0,1,17.57-2.19,9.744,9.744,0,0,1,.32,2.64c0,3.77.03,7.53-.01,11.3-.01.92.23,1.08,1.13,1a8.367,8.367,0,0,1,6.93,2.48c5,5.05,10.01,10.09,14.9,15.25a19.777,19.777,0,0,1,5.56,13.54c.12,6.17.05,12.35.03,18.53a3.566,3.566,0,1,1-7.13-.03c-.02-5.71-.03-11.42,0-17.13a14.583,14.583,0,0,0-4.36-10.73c-4.58-4.63-9.13-9.3-13.68-13.95a2.094,2.094,0,0,0-1.85-.9c-1.43.22-1.92,1.72-.95,3.04,2.16,2.93,4.35,5.83,6.52,8.75.96,1.29,1.95,2.55,2.88,3.86a3.576,3.576,0,1,1-5.7,4.32q-4.98-6.57-9.87-13.21a9.285,9.285,0,0,1-1.58-5.77v-19.8a7.2,7.2,0,0,0-.04-1.14,1.731,1.731,0,0,0-3.36-.25,4.867,4.867,0,0,0-.13,1.38q-.015,13.71-.01,27.42a11.5,11.5,0,0,0,2.79,7.69c4.63,5.5,9.2,11.05,13.83,16.55a5.047,5.047,0,0,1,1.28,3.59c-.06,2.03,0,4.06-.02,6.09a3.626,3.626,0,0,1-3.51,3.87,3.554,3.554,0,0,1-3.67-3.69c-.07-1.52-.06-3.05-.01-4.57a2.884,2.884,0,0,0-.73-2.07c-4.16-4.95-8.26-9.96-12.46-14.89a18.879,18.879,0,0,1-4.69-12.92C438.54,479.27,438.5,474.82,438.5,470.38Z" fill="#1aa7de"/>
      <path id="Path_243" data-name="Path 243" d="M538.51,470.58c0,4.44-.04,8.88.01,13.33a18.577,18.577,0,0,1-4.56,12.58c-4.23,5.01-8.39,10.07-12.61,15.09a2.63,2.63,0,0,0-.69,1.94c.05,1.52.03,3.05.01,4.57a3.6,3.6,0,0,1-3.62,3.76,3.556,3.556,0,0,1-3.53-3.82c-.02-2.12.03-4.23-.02-6.35a4.8,4.8,0,0,1,1.21-3.35c4.6-5.47,9.14-10.99,13.75-16.45a11.937,11.937,0,0,0,2.91-8.03c-.03-9.05-.01-18.11-.02-27.16a4.865,4.865,0,0,0-.11-1.38,1.621,1.621,0,0,0-1.81-1.26,1.647,1.647,0,0,0-1.6,1.52,7.207,7.207,0,0,0-.03,1.14c0,6.52-.02,13.03.01,19.55a10.957,10.957,0,0,1-2.36,7.05c-3.05,3.94-5.98,7.98-8.99,11.97a3.585,3.585,0,0,1-6.44-2.91,4.549,4.549,0,0,1,.9-1.66q4.335-5.79,8.65-11.59c.18-.24.37-.47.53-.71a1.753,1.753,0,0,0-.18-2.59,1.682,1.682,0,0,0-2.47.31q-2.7,2.775-5.42,5.53-4.35,4.44-8.7,8.89a14.081,14.081,0,0,0-4.13,10.18q-.015,8.505.01,17.01a3.828,3.828,0,0,1-1.31,3.28,3.42,3.42,0,0,1-3.58.57,3.206,3.206,0,0,1-2.25-2.96c-.01-6.85-.34-13.71.16-20.55a19.259,19.259,0,0,1,5.55-12.1c4.86-5.07,9.8-10.06,14.74-15.05a8.44,8.44,0,0,1,7.04-2.53c1.04.1,1.07-.27,1.07-1.07-.03-3.93-.07-7.87.01-11.8a8.827,8.827,0,0,1,6.93-8.47,8.989,8.989,0,0,1,9.82,4.42,9.293,9.293,0,0,1,1.11,4.63Q538.5,463.34,538.51,470.58Z" fill="#1aa7de"/>
      <path id="Path_244" data-name="Path 244" d="M486.06,438.69a20.277,20.277,0,0,1,7.95-11.42,30.663,30.663,0,0,1,14.79-5.17,43.379,43.379,0,0,1,4.56-.24,3.458,3.458,0,0,1,3.72,3.5c.01,5.39-.4,10.73-2.45,15.81-2.7,6.71-7.88,10.34-14.74,11.87a33.715,33.715,0,0,1-6.78.84c-.82.01-1.06.31-1.05,1.13.05,3.05.03,6.09.01,9.14-.01.67.18.95.87,1.1a23.225,23.225,0,0,1,7.99,3.42,3.613,3.613,0,0,1,1.35,5.05,3.558,3.558,0,0,1-5.2,1,15.842,15.842,0,0,0-8.4-2.87,15.209,15.209,0,0,0-8.55,2.78,3.866,3.866,0,0,1-3.24.69,3.587,3.587,0,0,1-1.06-6.45,23.283,23.283,0,0,1,8.07-3.56c.85-.18,1.09-.51,1.06-1.33-.06-1.77-.07-3.56,0-5.33.04-.89-.27-1.15-1.12-1.18a44.049,44.049,0,0,1-10.51-1.54c-7.53-2.13-11.53-7.24-12.77-14.78a49.089,49.089,0,0,1-.6-8.21c.01-2.51,1.44-3.97,3.92-3.94,7.13.08,13.74,1.69,19.2,6.62.53.48,1.04,1,1.54,1.51C485.08,437.59,485.52,438.09,486.06,438.69Z" fill="#1aa7de"/>
      <path id="Path_245" data-name="Path 245" d="M492.24,445.23c.43-5.33,2.12-9.98,6.95-12.94a24.922,24.922,0,0,1,9.96-3.05c.63-.08.71.19.68.7a22.7,22.7,0,0,1-2.16,9.42c-1.89,3.68-5.08,5.63-8.97,6.61a27.2,27.2,0,0,1-5,.75C492.14,446.81,492.14,446.8,492.24,445.23Z" fill="#fefefe"/>
      <path id="Path_246" data-name="Path 246" d="M482.14,450.25a34.163,34.163,0,0,1-6.12-.97c-5.31-1.5-7.92-4.54-8.6-10.02-.38-3.11-.38-3.13,2.66-2.41a18.453,18.453,0,0,1,13.57,11.76C484.36,450.36,484.35,450.36,482.14,450.25Z" fill="#fefefe"/>
    </g>
  </g>
</svg>
