<svg xmlns="http://www.w3.org/2000/svg" width="200" height="200" viewBox="0 0 200 200">
  <g id="web_based_invigilation" data-name="web based invigilation" transform="translate(-418.68 -410.12)">
    <circle id="Ellipse_239" data-name="Ellipse 239" cx="100" cy="100" r="100" transform="translate(418.68 410.12)" fill="#fff"/>
    <g id="Group_370" data-name="Group 370">
      <g id="Group_359" data-name="Group 359">
        <path id="Path_254" data-name="Path 254" d="M506.33,557.93a2.385,2.385,0,0,1-.83-.15,2.46,2.46,0,0,1-1.48-3.15l11.08-30.81a2.461,2.461,0,1,1,4.63,1.67L508.65,556.3A2.481,2.481,0,0,1,506.33,557.93Z" fill="#1aa7de"/>
      </g>
      <g id="Group_360" data-name="Group 360">
        <path id="Path_255" data-name="Path 255" d="M541.41,557.93a2.445,2.445,0,0,1-2.31-1.63l-11.08-30.81a2.461,2.461,0,1,1,4.63-1.67l11.08,30.81a2.471,2.471,0,0,1-2.32,3.3Z" fill="#1aa7de"/>
      </g>
      <g id="Group_361" data-name="Group 361">
        <path id="Path_256" data-name="Path 256" d="M573.99,494.41l-9.94,4.25a2.431,2.431,0,0,1-3.19-1.28l-13.6-31.81a2.431,2.431,0,0,1,1.28-3.19l9.94-4.25a2.431,2.431,0,0,1,3.19,1.28l13.6,31.81A2.426,2.426,0,0,1,573.99,494.41Z" fill="#1aa7de"/>
      </g>
      <g id="Group_362" data-name="Group 362">
        <path id="Path_257" data-name="Path 257" d="M550.83,499.02l-23.11,9.88a2.3,2.3,0,0,1-3.02-1.21l-9.88-23.11a2.3,2.3,0,0,1,1.21-3.02l23.11-9.88a2.3,2.3,0,0,1,3.02,1.21L552.04,496A2.3,2.3,0,0,1,550.83,499.02Z" fill="#1aa7de"/>
      </g>
      <g id="Group_363" data-name="Group 363">
        <path id="Path_258" data-name="Path 258" d="M512.85,510.55l-21.62,9.24a4.45,4.45,0,0,1-5.85-2.35l-4.78-11.18a4.449,4.449,0,0,1,2.35-5.85l21.62-9.24a4.449,4.449,0,0,1,5.85,2.35l4.78,11.18A4.466,4.466,0,0,1,512.85,510.55Z" fill="#1aa7de"/>
      </g>
      <g id="Group_364" data-name="Group 364">
        <rect id="Rectangle_718" data-name="Rectangle 718" width="10.81" height="12.43" transform="matrix(0.919, -0.393, 0.393, 0.919, 463.645, 513.344)" fill="#1aa7de"/>
      </g>
      <g id="Group_365" data-name="Group 365">
        <path id="Path_259" data-name="Path 259" d="M467.95,530.33h0a2.706,2.706,0,0,1-3.55-1.42l-6.59-15.41a2.706,2.706,0,0,1,1.42-3.55h0a2.706,2.706,0,0,1,3.55,1.42l6.59,15.41A2.7,2.7,0,0,1,467.95,530.33Z" fill="#1aa7de"/>
      </g>
      <g id="Group_369" data-name="Group 369">
        <g id="Group_366" data-name="Group 366">
          <circle id="Ellipse_240" data-name="Ellipse 240" cx="7.21" cy="7.21" r="7.21" transform="translate(515.91 503.66)" fill="#1aa7de"/>
        </g>
        <g id="Group_367" data-name="Group 367">
          <path id="Path_260" data-name="Path 260" d="M523.12,525.46a14.637,14.637,0,0,1-13.41-8.86h0a14.522,14.522,0,1,1,13.41,8.86Zm0-14.76a.563.563,0,0,0-.07.01.164.164,0,0,0-.09.22.255.255,0,0,0,.09.09.188.188,0,0,0,.13,0,.255.255,0,0,0,.09-.09.188.188,0,0,0,0-.13.255.255,0,0,0-.09-.09A.127.127,0,0,0,523.12,510.7Z" fill="#fff"/>
        </g>
        <g id="Group_368" data-name="Group 368">
          <path id="Path_261" data-name="Path 261" d="M523.12,520.54a9.692,9.692,0,0,1-8.89-5.87h0a9.662,9.662,0,1,1,8.89,5.87Zm0-14.43a4.883,4.883,0,0,0-1.87.38,4.75,4.75,0,0,0-2.5,6.23h0a4.75,4.75,0,0,0,6.23,2.5,4.751,4.751,0,0,0,2.5-6.23,4.7,4.7,0,0,0-2.6-2.54A4.834,4.834,0,0,0,523.12,506.11Z" fill="#1aa7de"/>
        </g>
      </g>
    </g>
  </g>
</svg>
