<svg xmlns="http://www.w3.org/2000/svg" xmlns:xlink="http://www.w3.org/1999/xlink" width="195.249" height="195.249" viewBox="0 0 195.249 195.249">
  <defs>
    <filter id="XMLID_680_" x="0" y="0" width="195.249" height="195.249" filterUnits="userSpaceOnUse">
      <feOffset dy="15" input="SourceAlpha"/>
      <feGaussianBlur stdDeviation="20" result="blur"/>
      <feFlood flood-color="#1aa7de" flood-opacity="0.502"/>
      <feComposite operator="in" in2="blur"/>
      <feComposite in="SourceGraphic"/>
    </filter>
  </defs>
  <g id="Group_809" data-name="Group 809" transform="translate(-1734.725 -682.592)">
    <g id="Group_511" data-name="Group 511" transform="translate(1794.725 727.592)">
      <g transform="matrix(1, 0, 0, 1, -60, -45)" filter="url(#XMLID_680_)">
        <path id="XMLID_680_2" data-name="XMLID_680_" d="M528.915,699.849h0a37.624,37.624,0,0,1-37.625-37.625h0A37.624,37.624,0,0,1,528.915,624.6h0a37.624,37.624,0,0,1,37.625,37.625h0A37.624,37.624,0,0,1,528.915,699.849Z" transform="translate(-431.29 -579.6)" fill="#1aa7de"/>
      </g>
    </g>
    <g id="Youtube" transform="translate(1467.25 379.404)">
      <path id="Path_724" data-name="Path 724" d="M498.775,438.558c-.066-.043-.131-.089-.2-.131q-6-3.772-12.007-7.547a1.535,1.535,0,0,0-1.688-.184,1.556,1.556,0,0,0-.753,1.527c.009,2.5,0,5.007,0,7.511s.006,5.007,0,7.51a1.57,1.57,0,0,0,.738,1.536,1.537,1.537,0,0,0,1.691-.162c2.123-1.314,4.257-2.611,6.388-3.915q2.894-1.769,5.784-3.54A1.438,1.438,0,0,0,498.775,438.558Zm-11.788,6.448v-.581q0-4.731.008-9.461c0-.122-.155-.533.26-.274,2.708,1.693,5.408,3.394,8.187,5.14Z" transform="translate(-125.196 -54.034)" fill="#fafafa"/>
      <path id="Path_725" data-name="Path 725" d="M389.188,375.565a9.773,9.773,0,0,0-3.062-4.658,9.114,9.114,0,0,0-5.959-2.266q-14.924-.017-29.848,0a9.381,9.381,0,0,0-7.712,3.816,8.523,8.523,0,0,0-1.857,4.692v17.312a8.007,8.007,0,0,0,1.056,3.458,9.193,9.193,0,0,0,8.228,5.027q15.042.1,30.083,0a9.232,9.232,0,0,0,8.3-5.072,7.883,7.883,0,0,0,1.035-3.512V377.336A13.81,13.81,0,0,0,389.188,375.565Zm-2.594,17.713a6.663,6.663,0,0,1-6.609,6.7c-4.977.046-9.956.011-14.934.011V400c-4.851,0-9.7.008-14.552,0a6.707,6.707,0,0,1-6.753-5.348,6.06,6.06,0,0,1-.145-1.32c0-5.01-.006-10.019,0-15.029a6.664,6.664,0,0,1,6.585-6.676c4.977-.046,9.954-.017,14.932-.018,4.867,0,9.734-.009,14.6,0a6.7,6.7,0,0,1,6.634,4.954,6.466,6.466,0,0,1,.238,1.736C386.6,383.292,386.6,388.286,386.594,393.279Z" fill="#fafafa"/>
      <path id="Path_726" data-name="Path 726" d="M498.775,438.558c-.066-.043-.131-.089-.2-.131q-6-3.772-12.007-7.547a1.535,1.535,0,0,0-1.688-.184,1.556,1.556,0,0,0-.753,1.527c.009,2.5,0,5.007,0,7.511s.006,5.007,0,7.51a1.57,1.57,0,0,0,.738,1.536,1.537,1.537,0,0,0,1.691-.162c2.123-1.314,4.257-2.611,6.388-3.915q2.894-1.769,5.784-3.54A1.438,1.438,0,0,0,498.775,438.558Zm-11.788,6.448v-.581q0-4.731.008-9.461c0-.122-.155-.533.26-.274,2.708,1.693,5.408,3.394,8.187,5.14Z" transform="translate(-125.196 -54.034)" fill="#fafafa"/>
      <path id="Path_727" data-name="Path 727" d="M498.775,438.558c-.066-.043-.131-.089-.2-.131q-6-3.772-12.007-7.547a1.535,1.535,0,0,0-1.688-.184,1.556,1.556,0,0,0-.753,1.527c.009,2.5,0,5.007,0,7.511s.006,5.007,0,7.51a1.57,1.57,0,0,0,.738,1.536,1.537,1.537,0,0,0,1.691-.162c2.123-1.314,4.257-2.611,6.388-3.915q2.894-1.769,5.784-3.54A1.438,1.438,0,0,0,498.775,438.558Zm-11.788,6.448v-.581q0-4.731.008-9.461c0-.122-.155-.533.26-.274,2.708,1.693,5.408,3.394,8.187,5.14Z" transform="translate(-125.196 -54.034)" fill="#fafafa"/>
    </g>
  </g>
</svg>
