<svg xmlns="http://www.w3.org/2000/svg" width="200" height="200" viewBox="0 0 200 200">
  <g id="Group_578" data-name="Group 578" transform="translate(-1774.83 -3321)">
    <circle id="Ellipse_269" data-name="Ellipse 269" cx="100" cy="100" r="100" transform="translate(1774.83 3321)" fill="#fff" opacity="0"/>
    <path id="Path_357" data-name="Path 357" d="M530.46,315.11a7.107,7.107,0,0,1,.82-2.07,5.032,5.032,0,0,1,4.2-2.35c1.54-.04,3.08-.01,4.62-.01.52,0,.69.16.7.69.01.44.01.87,0,1.31-.01.55-.17.72-.72.72-1.37,0-2.75.08-4.12-.02a2.837,2.837,0,0,0-2.8,2.78c.1,1.38.02,2.78.02,4.17,0,.61-.13.74-.73.75-.44,0-.87-.01-1.31.01a.7.7,0,0,1-.68-.33C530.46,318.86,530.46,316.98,530.46,315.11Z" transform="translate(1313.42 3049.58)" fill="#1aa7de"/>
    <path id="Path_376" data-name="Path 376" d="M530.46,316.65a7.107,7.107,0,0,0,.82,2.07,5.032,5.032,0,0,0,4.2,2.35c1.54.04,3.08.01,4.62.01.52,0,.69-.16.7-.69.01-.44.01-.87,0-1.31-.01-.55-.17-.72-.72-.72-1.37,0-2.75-.08-4.12.02a2.837,2.837,0,0,1-2.8-2.78c.1-1.38.02-2.78.02-4.17,0-.61-.13-.74-.73-.75-.44,0-.87.01-1.31-.01a.7.7,0,0,0-.68.33C530.46,312.9,530.46,314.78,530.46,316.65Z" transform="translate(1313.42 3091.456)" fill="#1aa7de"/>
    <path id="Path_358" data-name="Path 358" d="M591.96,317.81v2.46c0,.54-.15.69-.68.7-.45.01-.91.01-1.36,0-.54-.01-.67-.14-.67-.7v-4.32a2.666,2.666,0,0,0-2.64-2.65h-4.12c-.61,0-.76-.15-.76-.77v-1.36c0-.33.16-.58.5-.58a44.188,44.188,0,0,1,5.52.09,5.059,5.059,0,0,1,4.22,4.86c0,.76-.01,1.52-.01,2.27Z" transform="translate(1313.42 3049.58)" fill="#1aa7de"/>
    <path id="Path_375" data-name="Path 375" d="M591.96,313.712v-2.46c0-.54-.15-.69-.68-.7-.45-.01-.91-.01-1.36,0-.54.01-.67.14-.67.7v4.32a2.666,2.666,0,0,1-2.64,2.65h-4.12c-.61,0-.76.15-.76.77v1.36c0,.33.16.58.5.58a44.188,44.188,0,0,0,5.52-.09,5.059,5.059,0,0,0,4.22-4.86c0-.76-.01-1.52-.01-2.27Z" transform="translate(1313.42 3091.693)" fill="#1aa7de"/>
    <g id="Group_577" data-name="Group 577" transform="translate(1313.42 3049.58)">
      <path id="Path_368" data-name="Path 368" d="M562.59,332.13c-.07,0-.14.03-.2.03a.131.131,0,0,1-.1.03,2.236,2.236,0,0,0,.51-.07,3.988,3.988,0,0,0,.65-.14C563.17,332.03,562.89,332.1,562.59,332.13Zm-9.26-1.19c-1.26,2.83-2.83,6.37-4.73,10.55a1.226,1.226,0,0,0,.07.17c1.97-4.29,3.57-7.83,4.87-10.69C553.47,330.98,553.4,330.94,553.33,330.94Zm0,0c-1.26,2.83-2.83,6.37-4.73,10.55a1.226,1.226,0,0,0,.07.17c1.97-4.29,3.57-7.83,4.87-10.69C553.47,330.98,553.4,330.94,553.33,330.94Zm9.26,1.19c-.07,0-.14.03-.2.03a.131.131,0,0,1-.1.03,2.236,2.236,0,0,0,.51-.07,3.988,3.988,0,0,0,.65-.14C563.17,332.03,562.89,332.1,562.59,332.13Zm24.71,40.14c-3.1-.88-6.4-1.09-9.63-1.63-6.6-1.09-9.09-6.98-5.72-12.8,1.36-2.38,1.77-5.31,2.45-8.03.34-1.26-.07-3,.65-3.88,2.96-3.85,2.72-8.1,2.18-12.46-.92-6.98-4.32-10.04-11.27-10.45-5.11-.27-10.18-.65-15.66-.99-.92,1.9-2.18,4.29-3.27,6.77-2.52,5.86-3.68,11.61.99,17.16.61.68.44,2.01.75,3.03.92,3.2,1.43,6.6,2.93,9.5,2.59,4.97.2,10.96-5.34,12.05-2.28.44-4.6.61-6.88.88-4.73.58-8.58,2.65-11.06,6.74a11.412,11.412,0,0,0-.75,3.27c.37.14.75.27,1.12.44.75-1.02,1.5-2.08,2.28-3.06,3.34-4.36,14.19-7.22,18.07-4.56,8.03,5.48,16,5.11,24.1.27.92-.55,1.97-1.36,2.89-1.29,6.57.61,13.62.34,17.36,7.56.2.48.99.61,1.63.99C595.57,377.81,592.27,373.66,587.3,372.27Zm-15.72-20.29a9.427,9.427,0,0,1-5.65,7.73,9.635,9.635,0,0,1-3.54.95c-.34.03-.68.03-1.02.03-.31,0-.65-.03-.95-.03a11.911,11.911,0,0,1-1.6-.31,4.647,4.647,0,0,1-.85-.27,9.822,9.822,0,0,1-6.43-8.31c-.58-6.09-.65-12.15,3.51-16.88,3,0,5.75.14,8.51-.03a11.345,11.345,0,0,1,3.44.2,3.91,3.91,0,0,1,1.05.34c2.11.78,3.23,2.69,3.57,6.03A55.519,55.519,0,0,1,571.58,351.98ZM548.5,341.7c-2.55-7.01.95-11.81,3.23-16.24h.17c4.32,0,7.83-.03,11.34,0,.51,0,1.02,0,1.5.03a10.652,10.652,0,0,1,1.16.1h.03a12.777,12.777,0,0,1,2.45.41h.03c5.41,1.39,7.11,5.31,6.16,12.97V339c-.2-.07-.61-.07-.65-.17-1.33-4.02-3.47-6.37-6.91-6.91a10.255,10.255,0,0,0-2.31-.07,2.03,2.03,0,0,1-.44.03c-.24.03-.51.07-.82.1-.27.03-.54.1-.85.14-.07,0-.14.03-.2.03a.131.131,0,0,1-.1.03c-.14,0-.27.03-.41.03a11.372,11.372,0,0,1-1.43,0c-2.14-.14-4.49-.89-6.91-1.26-.07,0-.14-.03-.2-.03-1.26,2.83-2.83,6.37-4.73,10.55A2.274,2.274,0,0,0,548.5,341.7Zm21.88,31.25a6.246,6.246,0,0,1-1.19.75,15.477,15.477,0,0,1-3.03,1.33,12.23,12.23,0,0,1-1.26.34,1.956,1.956,0,0,1-.41.07,6.379,6.379,0,0,1-1.05.17,15.325,15.325,0,0,1-3.51.1,12.631,12.631,0,0,1-1.97-.27,11.833,11.833,0,0,1-1.87-.55,2.2,2.2,0,0,1-.68-.24c-.2-.07-.44-.17-.65-.24a14.862,14.862,0,0,1-3.3-2.18c1.6-3.3,3.1-6.47,4.56-9.46h11.16c1.4,3,2.83,6.06,4.36,9.33A9.594,9.594,0,0,1,570.38,372.95Zm-17.05-42.01c-1.26,2.83-2.83,6.37-4.73,10.55a1.226,1.226,0,0,0,.07.17c1.97-4.29,3.57-7.83,4.87-10.69C553.47,330.98,553.4,330.94,553.33,330.94Zm9.26,1.19c-.07,0-.14.03-.2.03a.131.131,0,0,1-.1.03,2.236,2.236,0,0,0,.51-.07,3.988,3.988,0,0,0,.65-.14C563.17,332.03,562.89,332.1,562.59,332.13Z" fill="#1aa7de" stroke="#1aa7de" stroke-miterlimit="10" stroke-width="1"/>
      <path id="Path_369" data-name="Path 369" d="M557.96,360.08a9.716,9.716,0,0,1-6.54-8.31c-.61-6.09-.68-12.15,3.47-16.88h.14c-4.15,4.73-4.08,10.79-3.51,16.88A9.848,9.848,0,0,0,557.96,360.08Z" fill="#fff" stroke="#1aa7de" stroke-miterlimit="10" stroke-width="1"/>
      <path id="Path_370" data-name="Path 370" d="M551.46,372.23a15.22,15.22,0,0,0,3.3,2.18,14.415,14.415,0,0,1-3.37-2.18c1.57-3.3,3.1-6.47,4.53-9.46h.1C554.56,365.76,553.06,368.93,551.46,372.23Z" fill="#fff" stroke="#1aa7de" stroke-miterlimit="10" stroke-width="1"/>
      <path id="Path_371" data-name="Path 371" d="M553.33,330.94c.07,0,.14.03.2.03-1.29,2.86-2.89,6.43-4.87,10.72a1.181,1.181,0,0,0-.07-.2C550.51,337.31,552.07,333.77,553.33,330.94Z" fill="#fff" stroke="#1aa7de" stroke-miterlimit="10" stroke-width="1"/>
      <path id="Path_372" data-name="Path 372" d="M562.59,332.13c.58-.1,1.16-.2,1.67-.24-.44.07-.95.14-1.46.24a4.114,4.114,0,0,1-.92.1A3.571,3.571,0,0,0,562.59,332.13Z" fill="#fff" stroke="#1aa7de" stroke-miterlimit="10" stroke-width="1"/>
      <path id="Path_373" data-name="Path 373" d="M574.77,339.01a.488.488,0,0,0-.2-.03c.95-7.66-.75-11.57-6.16-12.97C573.96,327.3,575.73,331.22,574.77,339.01Z" fill="#fff" stroke="#1aa7de" stroke-miterlimit="10" stroke-width="1"/>
      <g id="Group_575" data-name="Group 575">
        <path id="Path_374" data-name="Path 374" d="M593.9,420.81H528.91a4.69,4.69,0,0,1-4.59-3.77l-5.45-27.33a4.705,4.705,0,0,1,.97-3.89,4.651,4.651,0,0,1,3.62-1.71h75.89a4.688,4.688,0,0,1,4.59,5.6l-5.45,27.33A4.688,4.688,0,0,1,593.9,420.81Zm-70.44-34.15a2.129,2.129,0,0,0-2.08,2.55l5.45,27.33a2.129,2.129,0,0,0,2.08,1.71H593.9a2.121,2.121,0,0,0,2.08-1.71l5.45-27.33a2.129,2.129,0,0,0-2.09-2.55Z" fill="#1aa7de" stroke="#1aa7de" stroke-miterlimit="10" stroke-width="1"/>
      </g>
      <g id="Group_576" data-name="Group 576">
        <rect id="Rectangle_813" data-name="Rectangle 813" width="120.36" height="2.55" transform="translate(501.23 418.26)" fill="#1aa7de" stroke="#1aa7de" stroke-miterlimit="10" stroke-width="1"/>
      </g>
    </g>
  </g>
</svg>
